P3
# Created by Paint Shop Pro 6
16 16
255
255 255 255 255 255 255 255 255 255 255 255 255 255 255 255 255 255 255 
255 255 255 255 255 255 255 255 255 255 255 255 255 255 255 255 255 255 
255 255 255 255 255 255 255 255 255 255 255 255 255 255 255 255 255 255 
255 255 255 255 255 255 255 255 255 255 255 255 255 255 255 255 255 255 
255 255 255 255 255 255 255 255 255 255 255 255 255 255 255 255 255 255 
255 255 255 255 255 255 255 255 255 255 255 255 255 255 255 255 255 255 
132 130 132 132 130 132 132 130 132 132 130 132 255 255 255 255 255 255 
255 255 255 255 255 255 255 255 255 255 255 255 255 255 255 255 255 255 
255 255 255 255 255 255 132 130 132 255 255 255 255 255 255 255 255 255 
255 255 255 255 255 255 132 130 132 255 255 255 255 255 255 255 255 255 
255 255 255 255 255 255 255 255 255 255 255 255 255 255 255 132 130 132 
255 255 255 198 195 198 255 255 0 198 195 198 255 255 0 198 195 198 255 255 255 
132 130 132 132 130 132 132 130 132 132 130 132 132 130 132 132 130 132 
255 255 255 255 255 255 132 130 132 255 255 255 255 255 0 198 195 198 255 255 0 
198 195 198 255 255 0 198 195 198 255 255 255 255 255 255 255 255 255 255 255 255 
255 255 255 132 130 132 0 0 0 255 255 255 132 130 132 255 255 255 198 195 198 
255 255 0 198 195 198 255 255 0 198 195 198 255 255 0 198 195 198 255 255 0 
198 195 198 255 255 0 198 195 198 132 130 132 0 0 0 132 130 132 132 130 132 
132 130 132 132 130 132 132 130 132 132 130 132 132 130 132 132 130 132 
132 130 132 132 130 132 132 130 132 132 130 132 132 130 132 255 255 0 132 130 132 
0 0 0 132 130 132 255 255 255 255 255 255 255 255 255 255 255 255 255 255 255 
255 255 255 255 255 255 255 255 255 255 255 255 255 255 255 132 130 132 
0 0 0 198 195 198 132 130 132 0 0 0 132 130 132 255 255 255 198 195 198 
255 255 0 198 195 198 255 255 0 198 195 198 255 255 0 198 195 198 255 255 0 
198 195 198 255 255 0 0 0 0 132 130 132 132 130 132 0 0 0 255 255 255 132 130 132 
255 255 255 198 195 198 255 255 0 198 195 198 255 255 0 198 195 198 255 255 0 
198 195 198 255 255 0 198 195 198 132 130 132 0 0 0 132 130 132 0 0 0 255 255 255 
132 130 132 255 255 255 255 255 0 198 195 198 255 255 0 198 195 198 255 255 0 
198 195 198 255 255 0 198 195 198 255 255 0 198 195 198 0 0 0 132 130 132 
0 0 0 255 255 255 255 255 255 132 130 132 255 255 255 255 255 0 198 195 198 
255 255 0 198 195 198 255 255 0 198 195 198 255 255 0 198 195 198 255 255 0 
132 130 132 0 0 0 0 0 0 255 255 255 255 255 255 132 130 132 132 130 132 
132 130 132 132 130 132 132 130 132 132 130 132 132 130 132 132 130 132 
132 130 132 132 130 132 132 130 132 132 130 132 0 0 0 0 0 0 255 255 255 
255 255 255 255 255 255 0 0 0 0 0 0 0 0 0 0 0 0 0 0 0 0 0 0 0 0 0 0 0 0 
0 0 0 0 0 0 0 0 0 0 0 0 0 0 0 255 255 255 255 255 255 255 255 255 255 255 255 
255 255 255 255 255 255 255 255 255 255 255 255 255 255 255 255 255 255 
255 255 255 255 255 255 255 255 255 255 255 255 255 255 255 255 255 255 

